<svg width="16" height="16" viewBox="0 0 16 16" fill="none" xmlns="http://www.w3.org/2000/svg">
<path fill-rule="evenodd" clip-rule="evenodd" d="M6.63067 1.38269H8.03733C9.264 1.38269 10.2307 1.38269 10.9907 1.48269C11.7707 1.58936 12.404 1.80936 12.904 2.30936C13.404 2.80936 13.624 3.44269 13.7307 4.22269C13.8307 4.98269 13.8307 5.95602 13.8307 7.17602V7.54936C13.8307 7.82269 13.604 8.04936 13.3307 8.04936C13.0573 8.04936 12.8307 7.82269 12.8307 7.54936V7.21602C12.8307 5.94269 12.8307 5.04269 12.7373 4.35602C12.644 3.68269 12.4773 3.29602 12.1973 3.01602C11.9173 2.73602 11.5307 2.56269 10.8573 2.47602C10.1707 2.38269 9.27067 2.38269 7.99733 2.38269H6.664C5.39067 2.38269 4.49067 2.38269 3.804 2.47602C3.13067 2.56269 2.744 2.73602 2.464 3.01602C2.184 3.29602 2.01067 3.68269 1.924 4.35602C1.83067 5.04269 1.83067 5.94269 1.83067 7.21602V9.21602C1.83067 10.4894 1.83067 11.3894 1.924 12.076C2.01733 12.7494 2.184 13.136 2.464 13.416C2.744 13.696 3.13067 13.8694 3.804 13.956C4.49067 14.0494 5.39067 14.0494 6.664 14.0494H7.33067C7.604 14.0494 7.83067 14.276 7.83067 14.5494C7.83067 14.8227 7.604 15.0494 7.33067 15.0494H6.624C5.39733 15.0494 4.43067 15.0494 3.67067 14.9494C2.89067 14.8427 2.25733 14.6227 1.75733 14.1227C1.25733 13.6227 1.03733 12.9894 0.930666 12.2094C0.830666 11.4494 0.830666 10.476 0.830666 9.25602V7.18269C0.830666 5.95602 0.830666 4.98936 0.930666 4.22936C1.03733 3.44936 1.25733 2.81602 1.75733 2.31602C2.25733 1.81602 2.89067 1.59602 3.67067 1.48936C4.43067 1.38936 5.404 1.38936 6.624 1.38936L6.63067 1.38269ZM12.864 9.96936C12.5573 9.18936 11.4507 9.18936 11.144 9.96936L11.1173 10.0294C10.9719 10.3992 10.7517 10.7351 10.4707 11.0161C10.1897 11.2971 9.85383 11.5172 9.484 11.6627L9.424 11.6894C8.644 11.996 8.644 13.1027 9.424 13.4094L9.484 13.436C10.2307 13.7294 10.824 14.3227 11.1173 15.0694L11.144 15.1294C11.4507 15.9094 12.5573 15.9094 12.864 15.1294L12.8907 15.0694C13.0361 14.6995 13.2563 14.3636 13.5373 14.0826C13.8183 13.8016 14.1542 13.5815 14.524 13.436L14.584 13.4094C15.364 13.1027 15.364 11.996 14.584 11.6894L14.524 11.6627C14.1542 11.5172 13.8183 11.2971 13.5373 11.0161C13.2563 10.7351 13.0361 10.3992 12.8907 10.0294L12.864 9.96936ZM12.004 10.5094C12.3971 11.4259 13.1275 12.1563 14.044 12.5494C13.1275 12.9425 12.3971 13.6728 12.004 14.5894C11.6109 13.6728 10.8805 12.9425 9.964 12.5494C10.8805 12.1563 11.6109 11.4259 12.004 10.5094ZM4.67067 4.71602C4.39733 4.71602 4.17067 4.94269 4.17067 5.21602C4.17067 5.48936 4.39733 5.71602 4.67067 5.71602H10.004C10.2773 5.71602 10.504 5.48936 10.504 5.21602C10.504 4.94269 10.2773 4.71602 10.004 4.71602H4.67067ZM4.67067 7.71602C4.39733 7.71602 4.17067 7.94269 4.17067 8.21602C4.17067 8.48936 4.39733 8.71602 4.67067 8.71602H10.004C10.2773 8.71602 10.504 8.48936 10.504 8.21602C10.504 7.94269 10.2773 7.71602 10.004 7.71602H4.67067ZM4.67067 10.716C4.39733 10.716 4.17067 10.9427 4.17067 11.216C4.17067 11.4894 4.39733 11.716 4.67067 11.716H7.33733C7.61067 11.716 7.83733 11.4894 7.83733 11.216C7.83733 10.9427 7.61067 10.716 7.33733 10.716H4.67067Z" fill="#699BF7"/>
</svg>
