<svg width="16" height="16" viewBox="0 0 16 16" fill="none" xmlns="http://www.w3.org/2000/svg">
<path fill-rule="evenodd" clip-rule="evenodd" d="M6.63069 1.38257H8.03735C9.26402 1.38257 10.2307 1.38257 10.9907 1.48257C11.7707 1.58924 12.404 1.80924 12.904 2.30924C13.404 2.80923 13.624 3.44257 13.7307 4.22257C13.8307 4.98257 13.8307 5.9559 13.8307 7.1759V7.54923C13.8307 7.82257 13.604 8.04923 13.3307 8.04923C13.0574 8.04923 12.8307 7.82257 12.8307 7.54923V7.2159C12.8307 5.94257 12.8307 5.04257 12.7374 4.3559C12.644 3.68257 12.4774 3.2959 12.1974 3.0159C11.9174 2.7359 11.5307 2.56257 10.8574 2.4759C10.1707 2.38257 9.27069 2.38257 7.99736 2.38257H6.66402C5.39069 2.38257 4.49069 2.38257 3.80402 2.4759C3.13069 2.56257 2.74402 2.7359 2.46402 3.0159C2.18402 3.2959 2.01069 3.68257 1.92402 4.3559C1.83069 5.04257 1.83069 5.94257 1.83069 7.2159V9.2159C1.83069 10.4892 1.83069 11.3892 1.92402 12.0759C2.01736 12.7492 2.18402 13.1359 2.46402 13.4159C2.74402 13.6959 3.13069 13.8692 3.80402 13.9559C4.49069 14.0492 5.39069 14.0492 6.66402 14.0492H7.33069C7.60402 14.0492 7.83069 14.2759 7.83069 14.5492C7.83069 14.8226 7.60402 15.0492 7.33069 15.0492H6.62402C5.39736 15.0492 4.43069 15.0492 3.67069 14.9492C2.89069 14.8426 2.25736 14.6226 1.75736 14.1226C1.25736 13.6226 1.03736 12.9892 0.930688 12.2092C0.830688 11.4492 0.830688 10.4759 0.830688 9.2559V7.18257C0.830688 5.9559 0.830688 4.98923 0.930688 4.22923C1.03736 3.44923 1.25736 2.8159 1.75736 2.3159C2.25736 1.8159 2.89069 1.5959 3.67069 1.48924C4.43069 1.38924 5.40402 1.38924 6.62402 1.38924L6.63069 1.38257ZM12.864 9.96924C12.5574 9.18924 11.4507 9.18924 11.144 9.96924L11.1174 10.0292C10.9719 10.3991 10.7518 10.735 10.4708 11.016C10.1897 11.297 9.85385 11.5171 9.48402 11.6626L9.42402 11.6892C8.64402 11.9959 8.64402 13.1026 9.42402 13.4092L9.48402 13.4359C10.2307 13.7292 10.824 14.3226 11.1174 15.0692L11.144 15.1292C11.4507 15.9092 12.5574 15.9092 12.864 15.1292L12.8907 15.0692C13.0362 14.6994 13.2563 14.3635 13.5373 14.0825C13.8183 13.8015 14.1542 13.5814 14.524 13.4359L14.584 13.4092C15.364 13.1026 15.364 11.9959 14.584 11.6892L14.524 11.6626C14.1542 11.5171 13.8183 11.297 13.5373 11.016C13.2563 10.735 13.0362 10.3991 12.8907 10.0292L12.864 9.96924ZM12.004 10.5092C12.3971 11.4258 13.1275 12.1561 14.044 12.5492C13.1275 12.9423 12.3971 13.6727 12.004 14.5892C11.6109 13.6727 10.8806 12.9423 9.96402 12.5492C10.8806 12.1561 11.6109 11.4258 12.004 10.5092ZM4.67069 4.7159C4.39736 4.7159 4.17069 4.94257 4.17069 5.2159C4.17069 5.48923 4.39736 5.7159 4.67069 5.7159H10.004C10.2774 5.7159 10.504 5.48923 10.504 5.2159C10.504 4.94257 10.2774 4.7159 10.004 4.7159H4.67069ZM4.67069 7.7159C4.39736 7.7159 4.17069 7.94257 4.17069 8.2159C4.17069 8.48923 4.39736 8.7159 4.67069 8.7159H10.004C10.2774 8.7159 10.504 8.48923 10.504 8.2159C10.504 7.94257 10.2774 7.7159 10.004 7.7159H4.67069ZM4.67069 10.7159C4.39736 10.7159 4.17069 10.9426 4.17069 11.2159C4.17069 11.4892 4.39736 11.7159 4.67069 11.7159H7.33735C7.61069 11.7159 7.83735 11.4892 7.83735 11.2159C7.83735 10.9426 7.61069 10.7159 7.33735 10.7159H4.67069Z" fill="#699BF7"/>
</svg>
