<svg width="24" height="24" viewBox="0 0 24 24" fill="none" xmlns="http://www.w3.org/2000/svg">
<path d="M5 21C4.45 21 3.97933 20.8043 3.588 20.413C3.19667 20.0217 3.00067 19.5507 3 19V5C3 4.45 3.196 3.97933 3.588 3.588C3.98 3.19667 4.45067 3.00067 5 3H19C19.55 3 20.021 3.196 20.413 3.588C20.805 3.98 21.0007 4.45067 21 5V19C21 19.55 20.8043 20.021 20.413 20.413C20.0217 20.805 19.5507 21.0007 19 21H5ZM5 8.325H19V5H5V8.325ZM5 13.675H19V10.325H5V13.675ZM5 19H19V15.675H5V19ZM7 7.65C6.71667 7.65 6.47933 7.554 6.288 7.362C6.09667 7.17 6.00067 6.93267 6 6.65C5.99933 6.36733 6.09533 6.13 6.288 5.938C6.48067 5.746 6.718 5.65 7 5.65C7.282 5.65 7.51967 5.746 7.713 5.938C7.90633 6.13 8.002 6.36733 8 6.65C7.998 6.93267 7.902 7.17033 7.712 7.363C7.522 7.55567 7.28467 7.65133 7 7.65ZM7 13C6.71667 13 6.47933 12.904 6.288 12.712C6.09667 12.52 6.00067 12.2827 6 12C5.99933 11.7173 6.09533 11.48 6.288 11.288C6.48067 11.096 6.718 11 7 11C7.282 11 7.51967 11.096 7.713 11.288C7.90633 11.48 8.002 11.7173 8 12C7.998 12.2827 7.902 12.5203 7.712 12.713C7.522 12.9057 7.28467 13.0013 7 13ZM7 18.35C6.71667 18.35 6.47933 18.254 6.288 18.062C6.09667 17.87 6.00067 17.6327 6 17.35C5.99933 17.0673 6.09533 16.83 6.288 16.638C6.48067 16.446 6.718 16.35 7 16.35C7.282 16.35 7.51967 16.446 7.713 16.638C7.90633 16.83 8.002 17.0673 8 17.35C7.998 17.6327 7.902 17.8703 7.712 18.063C7.522 18.2557 7.28467 18.3513 7 18.35Z" fill="#154ECC"/>
</svg>
