<svg width="20" height="20" viewBox="0 0 20 20" fill="none" xmlns="http://www.w3.org/2000/svg">
<path d="M17.2608 6.7733L17.0558 7.24497C17.0238 7.32177 16.9697 7.38738 16.9005 7.43353C16.8312 7.47967 16.7498 7.5043 16.6666 7.5043C16.5834 7.5043 16.502 7.47967 16.4328 7.43353C16.3635 7.38738 16.3095 7.32177 16.2775 7.24497L16.0725 6.7733C15.712 5.9389 15.0519 5.2699 14.2225 4.8983L13.59 4.6158C13.5132 4.5805 13.4482 4.52394 13.4027 4.45282C13.3571 4.3817 13.3329 4.29901 13.3329 4.21455C13.3329 4.13008 13.3571 4.04739 13.4027 3.97627C13.4482 3.90516 13.5132 3.8486 13.59 3.8133L14.1875 3.54747C15.0378 3.16528 15.7092 2.47153 16.0633 1.60913L16.2741 1.09997C16.3051 1.02109 16.3591 0.95338 16.4291 0.905653C16.4991 0.857925 16.5819 0.832397 16.6666 0.832397C16.7514 0.832397 16.8341 0.857925 16.9041 0.905653C16.9742 0.95338 17.0282 1.02109 17.0591 1.09997L17.27 1.6083C17.6237 2.47086 18.2948 3.16491 19.145 3.54747L19.7433 3.81413C19.8198 3.84953 19.8846 3.90608 19.93 3.97711C19.9754 4.04814 19.9995 4.13067 19.9995 4.21497C19.9995 4.29926 19.9754 4.38179 19.93 4.45282C19.8846 4.52385 19.8198 4.5804 19.7433 4.6158L19.11 4.89747C18.2806 5.26944 17.6209 5.93874 17.2608 6.7733ZM16.6666 9.16663C17.2322 9.16708 17.7938 9.07156 18.3275 8.88413C18.3313 8.97858 18.3333 9.07274 18.3333 9.16663C18.3333 10.9347 17.6309 12.6304 16.3807 13.8807C15.1304 15.1309 13.4347 15.8333 11.6666 15.8333V18.75C7.49996 17.0833 1.66663 14.5833 1.66663 9.16663C1.66663 7.39852 2.36901 5.70283 3.61925 4.45259C4.86949 3.20234 6.56518 2.49997 8.33329 2.49997H11.6666C11.7611 2.49997 11.8552 2.50191 11.9491 2.5058C11.6836 3.2599 11.6027 4.06669 11.7133 4.8585C11.824 5.65031 12.1229 6.40404 12.5849 7.05648C13.047 7.70892 13.6588 8.24103 14.369 8.60819C15.0792 8.97536 15.8671 9.16686 16.6666 9.16663Z" fill="#699BF7"/>
</svg>
