<svg width="17" height="18" viewBox="0 0 17 18" fill="none" xmlns="http://www.w3.org/2000/svg">
<path d="M7.28644 5.86592L2.53537 11.3869C1.97465 12.0365 2.44291 13.0457 3.30188 13.0387L12.8936 12.9604C13.0858 12.959 13.2736 12.9022 13.4344 12.7968C13.5951 12.6914 13.7222 12.542 13.8002 12.3663C13.8782 12.1906 13.9039 11.9961 13.8743 11.8061C13.8446 11.6162 13.7609 11.4388 13.633 11.2953L8.7924 5.85462C8.69767 5.74798 8.58121 5.66284 8.45086 5.60492C8.32051 5.547 8.17927 5.51764 8.03664 5.5188C7.894 5.51996 7.75326 5.55163 7.62387 5.61167C7.49448 5.67172 7.37943 5.75874 7.28645 5.86692L7.28644 5.86592Z" fill="#F7696B"/>
</svg>
