<svg width="16" height="16" viewBox="0 0 16 16" fill="none" xmlns="http://www.w3.org/2000/svg">
<path fill-rule="evenodd" clip-rule="evenodd" d="M14.6536 12.5425C14.6608 12.5765 14.665 12.6108 14.6663 12.6455L14.6667 12.6676V13.3342C14.6667 14.0706 13.3236 14.6676 11.6667 14.6676C10.0264 14.6676 8.69359 14.0825 8.66712 13.3563L8.66672 13.3342V12.6676L8.66712 12.6455C8.66837 12.6109 8.67256 12.5767 8.67969 12.5427C8.86344 12.6808 9.08709 12.8082 9.34628 12.9172C9.95128 13.1717 10.767 13.3342 11.6667 13.3342C12.6021 13.3342 13.4466 13.1583 14.0588 12.8862C14.2876 12.7845 14.4868 12.6681 14.6536 12.5425ZM7.33337 1.07422L13.3334 4.40756L13.3334 6.86762C12.8419 6.74144 12.2734 6.66756 11.6667 6.66756C10.753 6.66756 9.92597 6.83553 9.31584 7.10669C8.48044 7.478 8.05512 8.04581 8.00137 8.62047L7.99984 8.63788L8.00366 14.0352L7.33337 14.4076L1.33337 11.0742V4.40756L7.33337 1.07422ZM14.6536 10.5425C14.6608 10.5765 14.665 10.6108 14.6663 10.6455L14.6667 10.6676V11.3342C14.6667 12.0706 13.3236 12.6676 11.6667 12.6676C10.0264 12.6676 8.69359 12.0825 8.66712 11.3563L8.66672 11.3342V10.6676L8.66712 10.6455C8.66837 10.6109 8.67256 10.5767 8.67969 10.5427C8.86344 10.6808 9.08709 10.8082 9.34628 10.9172C9.95128 11.1717 10.767 11.3342 11.6667 11.3342C12.6021 11.3342 13.4466 11.1583 14.0588 10.8862C14.2876 10.7845 14.4868 10.6681 14.6536 10.5425ZM5.33334 7.29634L5.33337 11.815L6.66672 12.5558V8.03706L5.33334 7.29634ZM2.66672 5.81491V10.3335L4.00003 11.0742V6.55562L2.66672 5.81491ZM11.6667 7.33422C13.307 7.33422 14.6398 7.91928 14.6663 8.6455L14.6667 8.66756V9.33422C14.6667 10.0706 13.3236 10.6676 11.6667 10.6676C10.0264 10.6676 8.69359 10.0825 8.66712 9.35628L8.66672 9.33422V8.66756L8.67116 8.59441C8.75659 7.89203 10.0651 7.33422 11.6667 7.33422ZM9.95809 4.01388L6.03375 6.20406L7.33337 6.92606L11.2667 4.74087L9.95809 4.01388ZM7.33337 2.55569L3.40003 4.74087L4.70197 5.46419L8.62628 3.274L7.33337 2.55569Z" fill="black"/>
</svg>
