<svg width="20" height="20" viewBox="0 0 20 20" fill="none" xmlns="http://www.w3.org/2000/svg">
<path d="M10.8333 15.8333C10.5972 15.8333 10.3994 15.7533 10.24 15.5933C10.0806 15.4333 10.0006 15.2356 10 15V8.33333H3.33334C3.09723 8.33333 2.89945 8.25333 2.74 8.09333C2.58056 7.93333 2.50056 7.73556 2.5 7.5C2.49945 7.26444 2.57945 7.06667 2.74 6.90667C2.90056 6.74667 3.09834 6.66667 3.33334 6.66667H10.8333C11.0694 6.66667 11.2675 6.74667 11.4275 6.90667C11.5875 7.06667 11.6672 7.26444 11.6667 7.5V15C11.6667 15.2361 11.5867 15.4342 11.4267 15.5942C11.2667 15.7542 11.0689 15.8339 10.8333 15.8333ZM15 11.6667C14.7639 11.6667 14.5661 11.5867 14.4067 11.4267C14.2472 11.2667 14.1672 11.0689 14.1667 10.8333V4.16667H7.5C7.26389 4.16667 7.06611 4.08667 6.90667 3.92667C6.74722 3.76667 6.66722 3.56889 6.66667 3.33333C6.66611 3.09778 6.74611 2.9 6.90667 2.74C7.06722 2.58 7.265 2.5 7.5 2.5H15C15.2361 2.5 15.4342 2.58 15.5942 2.74C15.7542 2.9 15.8339 3.09778 15.8333 3.33333V10.8333C15.8333 11.0694 15.7533 11.2675 15.5933 11.4275C15.4333 11.5875 15.2356 11.6672 15 11.6667Z" fill="#699BF7"/>
</svg>
