<svg width="20" height="20" viewBox="0 0 20 20" fill="none" xmlns="http://www.w3.org/2000/svg">
<path d="M18.0625 12.2207L16.7832 11.127C16.8437 10.7559 16.875 10.377 16.875 9.99805C16.875 9.61914 16.8437 9.24024 16.7832 8.86914L18.0625 7.77539C18.159 7.69279 18.228 7.58277 18.2605 7.45996C18.2929 7.33715 18.2872 7.20738 18.2441 7.08789L18.2266 7.03711C17.8744 6.05279 17.347 5.1403 16.6699 4.34375L16.6348 4.30273C16.5526 4.20616 16.4432 4.13673 16.3208 4.10361C16.1984 4.07049 16.0688 4.07522 15.9492 4.11719L14.3613 4.68164C13.7754 4.20117 13.1211 3.82227 12.4141 3.55664L12.1074 1.89648C12.0843 1.77157 12.0237 1.65665 11.9337 1.56699C11.8437 1.47733 11.7285 1.41718 11.6035 1.39453L11.5508 1.38477C10.5332 1.20117 9.46289 1.20117 8.44531 1.38477L8.39257 1.39453C8.26757 1.41718 8.15241 1.47733 8.0624 1.56699C7.9724 1.65665 7.9118 1.77157 7.88867 1.89648L7.58007 3.56445C6.87868 3.83013 6.22552 4.20884 5.64648 4.68555L4.04687 4.11719C3.92727 4.07489 3.79763 4.06998 3.67518 4.10312C3.55273 4.13627 3.44326 4.20589 3.36132 4.30273L3.32617 4.34375C2.64989 5.14087 2.12261 6.0532 1.76953 7.03711L1.75195 7.08789C1.66406 7.33203 1.73632 7.60547 1.93359 7.77539L3.22851 8.88086C3.16797 9.24805 3.13867 9.62305 3.13867 9.99609C3.13867 10.3711 3.16797 10.7461 3.22851 11.1113L1.93359 12.2168C1.8371 12.2994 1.76804 12.4094 1.73559 12.5322C1.70314 12.655 1.70885 12.7848 1.75195 12.9043L1.76953 12.9551C2.12304 13.9395 2.64648 14.8477 3.32617 15.6484L3.36132 15.6895C3.44346 15.786 3.55293 15.8555 3.67531 15.8886C3.79769 15.9217 3.92724 15.917 4.04687 15.875L5.64648 15.3066C6.22851 15.7852 6.8789 16.1641 7.58007 16.4277L7.88867 18.0957C7.9118 18.2206 7.9724 18.3355 8.0624 18.4252C8.15241 18.5149 8.26757 18.575 8.39257 18.5977L8.44531 18.6074C9.47224 18.792 10.5238 18.792 11.5508 18.6074L11.6035 18.5977C11.7285 18.575 11.8437 18.5149 11.9337 18.4252C12.0237 18.3355 12.0843 18.2206 12.1074 18.0957L12.4141 16.4355C13.1208 16.1706 13.7788 15.7905 14.3613 15.3105L15.9492 15.875C16.0688 15.9173 16.1985 15.9222 16.3209 15.8891C16.4434 15.8559 16.5528 15.7863 16.6348 15.6895L16.6699 15.6484C17.3496 14.8457 17.873 13.9395 18.2266 12.9551L18.2441 12.9043C18.332 12.6641 18.2598 12.3906 18.0625 12.2207ZM15.3965 9.09961C15.4453 9.39453 15.4707 9.69727 15.4707 10C15.4707 10.3027 15.4453 10.6055 15.3965 10.9004L15.2676 11.6836L16.7266 12.9316C16.5054 13.4412 16.2262 13.9235 15.8945 14.3691L14.082 13.7266L13.4687 14.2305C13.0019 14.6133 12.4824 14.9141 11.9199 15.125L11.1758 15.4043L10.8262 17.2988C10.2745 17.3613 9.71763 17.3613 9.16601 17.2988L8.8164 15.4004L8.07812 15.1172C7.52148 14.9063 7.0039 14.6055 6.54101 14.2246L5.92773 13.7188L4.10351 14.3672C3.77148 13.9199 3.49414 13.4375 3.27148 12.9297L4.74609 11.6699L4.61914 10.8887C4.57226 10.5977 4.54687 10.2969 4.54687 10C4.54687 9.70117 4.57031 9.40234 4.61914 9.11133L4.74609 8.33008L3.27148 7.07031C3.49218 6.56055 3.77148 6.08008 4.10351 5.63281L5.92773 6.28125L6.54101 5.77539C7.0039 5.39453 7.52148 5.09375 8.07812 4.88281L8.81836 4.60352L9.16796 2.70508C9.71679 2.64258 10.2773 2.64258 10.8281 2.70508L11.1777 4.59961L11.9219 4.87891C12.4824 5.08984 13.0039 5.39063 13.4707 5.77344L14.084 6.27734L15.8965 5.63477C16.2285 6.08203 16.5059 6.56445 16.7285 7.07227L15.2695 8.32031L15.3965 9.09961ZM10 6.36719C8.10156 6.36719 6.5625 7.90625 6.5625 9.80469C6.5625 11.7031 8.10156 13.2422 10 13.2422C11.8984 13.2422 13.4375 11.7031 13.4375 9.80469C13.4375 7.90625 11.8984 6.36719 10 6.36719ZM11.5469 11.3516C11.344 11.555 11.1029 11.7164 10.8374 11.8263C10.5719 11.9363 10.2873 11.9926 10 11.9922C9.41601 11.9922 8.86718 11.7637 8.45312 11.3516C8.24965 11.1487 8.0883 10.9076 7.97836 10.6421C7.86842 10.3766 7.81205 10.092 7.8125 9.80469C7.8125 9.2207 8.04101 8.67188 8.45312 8.25781C8.86718 7.84375 9.41601 7.61719 10 7.61719C10.584 7.61719 11.1328 7.84375 11.5469 8.25781C11.7503 8.4607 11.9117 8.70182 12.0216 8.96729C12.1316 9.23276 12.1879 9.51735 12.1875 9.80469C12.1875 10.3887 11.959 10.9375 11.5469 11.3516Z" fill="#699BF7"/>
</svg>
