<svg width="16" height="16" viewBox="0 0 16 16" fill="none" xmlns="http://www.w3.org/2000/svg">
<path d="M13.8087 5.41874L13.6447 5.79607C13.6191 5.85751 13.5758 5.91 13.5204 5.94692C13.465 5.98384 13.3999 6.00354 13.3334 6.00354C13.2668 6.00354 13.2017 5.98384 13.1463 5.94692C13.0909 5.91 13.0477 5.85751 13.022 5.79607L12.858 5.41874C12.5697 4.75122 12.0416 4.21602 11.378 3.91874L10.872 3.69274C10.8107 3.6645 10.7586 3.61925 10.7222 3.56236C10.6857 3.50546 10.6664 3.43931 10.6664 3.37174C10.6664 3.30417 10.6857 3.23801 10.7222 3.18112C10.7586 3.12422 10.8107 3.07897 10.872 3.05074L11.35 2.83807C12.0303 2.53232 12.5674 1.97732 12.8507 1.2874L13.0194 0.88007C13.0441 0.816972 13.0874 0.762802 13.1434 0.72462C13.1994 0.686438 13.2656 0.666016 13.3334 0.666016C13.4012 0.666016 13.4674 0.686438 13.5234 0.72462C13.5794 0.762802 13.6226 0.816972 13.6474 0.88007L13.816 1.28674C14.099 1.97679 14.6359 2.53203 15.316 2.83807L15.7947 3.0514C15.8559 3.07972 15.9077 3.12496 15.944 3.18179C15.9804 3.23861 15.9997 3.30463 15.9997 3.37207C15.9997 3.43951 15.9804 3.50553 15.944 3.56235C15.9077 3.61918 15.8559 3.66442 15.7947 3.69274L15.288 3.91807C14.6246 4.21565 14.0968 4.75109 13.8087 5.41874ZM13.3334 7.3334C13.7859 7.33376 14.2351 7.25734 14.662 7.1074C14.6652 7.18296 14.6667 7.25829 14.6667 7.3334C14.6667 8.74789 14.1048 10.1044 13.1046 11.1046C12.1044 12.1048 10.7479 12.6667 9.33337 12.6667V15.0001C6.00004 13.6667 1.33337 11.6667 1.33337 7.3334C1.33337 5.91892 1.89528 4.56236 2.89547 3.56217C3.89567 2.56197 5.25222 2.00007 6.66671 2.00007H9.33337C9.40893 2.00007 9.48426 2.00163 9.55937 2.00474C9.34692 2.60802 9.28223 3.25345 9.37074 3.8869C9.45924 4.52034 9.69835 5.12333 10.068 5.64528C10.4377 6.16723 10.9271 6.59292 11.4953 6.88665C12.0635 7.18038 12.6938 7.33358 13.3334 7.3334Z" fill="black"/>
</svg>
