<svg width="16" height="16" viewBox="0 0 16 16" fill="none" xmlns="http://www.w3.org/2000/svg">
<path fill-rule="evenodd" clip-rule="evenodd" d="M9.33334 13.6666V2.83325C9.33334 2.34792 9.33201 2.03325 9.30134 1.80259C9.27201 1.58592 9.22468 1.51792 9.18668 1.47992C9.14868 1.44192 9.08068 1.39459 8.86401 1.36525C8.63268 1.33459 8.31868 1.33325 7.83334 1.33325C7.34801 1.33325 7.03334 1.33459 6.80268 1.36525C6.58601 1.39459 6.51801 1.44192 6.48001 1.47992C6.44201 1.51792 6.39468 1.58592 6.36534 1.80259C6.33468 2.03392 6.33334 2.34792 6.33334 2.83325V13.6666H9.33334Z" fill="black"/>
<path opacity="0.7" d="M5.33334 5.83325C5.33334 5.70064 5.28067 5.57347 5.1869 5.4797C5.09313 5.38593 4.96595 5.33325 4.83334 5.33325H2.83334C2.70074 5.33325 2.57356 5.38593 2.47979 5.4797C2.38602 5.57347 2.33334 5.70064 2.33334 5.83325V13.6666H5.33334V5.83325ZM13.3333 9.16658C13.3333 9.03398 13.2807 8.9068 13.1869 8.81303C13.0931 8.71926 12.966 8.66658 12.8333 8.66658H10.8333C10.7007 8.66658 10.5736 8.71926 10.4798 8.81303C10.386 8.9068 10.3333 9.03398 10.3333 9.16658V13.6666H13.3333V9.16658Z" fill="black"/>
<path opacity="0.5" d="M1.16666 13.6667C1.03405 13.6667 0.906871 13.7194 0.813103 13.8132C0.719335 13.907 0.666656 14.0341 0.666656 14.1667C0.666656 14.2994 0.719335 14.4265 0.813103 14.5203C0.906871 14.6141 1.03405 14.6667 1.16666 14.6667H14.5C14.6326 14.6667 14.7598 14.6141 14.8535 14.5203C14.9473 14.4265 15 14.2994 15 14.1667C15 14.0341 14.9473 13.907 14.8535 13.8132C14.7598 13.7194 14.6326 13.6667 14.5 13.6667H1.16666Z" fill="black"/>
</svg>
