<svg width="32" height="32" viewBox="0 0 32 32" fill="none" xmlns="http://www.w3.org/2000/svg">
<path d="M8.06125 4.9388C7.77946 4.65701 7.39727 4.4987 6.99875 4.4987C6.60024 4.4987 6.21804 4.65701 5.93625 4.9388C5.65446 5.2206 5.49615 5.60279 5.49615 6.0013C5.49615 6.39982 5.65446 6.78201 5.93625 7.0638L14.875 16.0001L5.93875 24.9388C5.65696 25.2206 5.49865 25.6028 5.49865 26.0013C5.49865 26.3998 5.65696 26.782 5.93875 27.0638C6.22054 27.3456 6.60273 27.5039 7.00125 27.5039C7.39976 27.5039 7.78196 27.3456 8.06375 27.0638L18.0638 17.0638C18.2036 16.9244 18.3145 16.7589 18.3903 16.5765C18.466 16.3942 18.5049 16.1987 18.5049 16.0013C18.5049 15.8039 18.466 15.6084 18.3903 15.4261C18.3145 15.2437 18.2036 15.0782 18.0638 14.9388L8.06125 4.9388ZM15.9363 24.9388L24.875 16.0001L15.935 7.06131C15.6532 6.77951 15.4949 6.39732 15.4949 5.99881C15.4949 5.60029 15.6532 5.2181 15.935 4.93631C16.2168 4.65451 16.599 4.4962 16.9975 4.4962C17.396 4.4962 17.7782 4.65451 18.06 4.93631L28.06 14.9363C28.1998 15.0757 28.3108 15.2412 28.3865 15.4236C28.4622 15.6059 28.5012 15.8014 28.5012 15.9988C28.5012 16.1962 28.4622 16.3917 28.3865 16.574C28.3108 16.7564 28.1998 16.9219 28.06 17.0613L18.06 27.0613C17.7782 27.3431 17.396 27.5014 16.9975 27.5014C16.599 27.5014 16.2168 27.3431 15.935 27.0613C15.6532 26.7795 15.4949 26.3973 15.4949 25.9988C15.4949 25.6003 15.6532 25.2181 15.935 24.9363L15.9363 24.9388Z" fill="#DCDCDC"/>
</svg>
