<svg width="28" height="28" viewBox="0 0 28 28" fill="none" xmlns="http://www.w3.org/2000/svg">
<path d="M27.125 22.75H25.375V10.5C25.6071 10.5 25.8296 10.4078 25.9937 10.2437C26.1578 10.0796 26.25 9.85706 26.25 9.625C26.25 9.39294 26.1578 9.17038 25.9937 9.00628C25.8296 8.84219 25.6071 8.75 25.375 8.75H20.125V5.25C20.3571 5.25 20.5796 5.15781 20.7437 4.99372C20.9078 4.82962 21 4.60706 21 4.375C21 4.14294 20.9078 3.92038 20.7437 3.75628C20.5796 3.59219 20.3571 3.5 20.125 3.5H4.375C4.14294 3.5 3.92038 3.59219 3.75628 3.75628C3.59219 3.92038 3.5 4.14294 3.5 4.375C3.5 4.60706 3.59219 4.82962 3.75628 4.99372C3.92038 5.15781 4.14294 5.25 4.375 5.25V22.75H2.625C2.39294 22.75 2.17038 22.8422 2.00628 23.0063C1.84219 23.1704 1.75 23.3929 1.75 23.625C1.75 23.8571 1.84219 24.0796 2.00628 24.2437C2.17038 24.4078 2.39294 24.5 2.625 24.5H27.125C27.3571 24.5 27.5796 24.4078 27.7437 24.2437C27.9078 24.0796 28 23.8571 28 23.625C28 23.3929 27.9078 23.1704 27.7437 23.0063C27.5796 22.8422 27.3571 22.75 27.125 22.75ZM23.625 10.5V22.75H20.125V10.5H23.625ZM6.125 5.25H18.375V22.75H15.75V17.5C15.75 17.2679 15.6578 17.0454 15.4937 16.8813C15.3296 16.7172 15.1071 16.625 14.875 16.625H9.625C9.39294 16.625 9.17038 16.7172 9.00628 16.8813C8.84219 17.0454 8.75 17.2679 8.75 17.5V22.75H6.125V5.25ZM14 22.75H10.5V18.375H14V22.75ZM7.875 8.75C7.875 8.51794 7.96719 8.29538 8.13128 8.13128C8.29538 7.96719 8.51794 7.875 8.75 7.875H10.5C10.7321 7.875 10.9546 7.96719 11.1187 8.13128C11.2828 8.29538 11.375 8.51794 11.375 8.75C11.375 8.98206 11.2828 9.20462 11.1187 9.36872C10.9546 9.53281 10.7321 9.625 10.5 9.625H8.75C8.51794 9.625 8.29538 9.53281 8.13128 9.36872C7.96719 9.20462 7.875 8.98206 7.875 8.75ZM13.125 8.75C13.125 8.51794 13.2172 8.29538 13.3813 8.13128C13.5454 7.96719 13.7679 7.875 14 7.875H15.75C15.9821 7.875 16.2046 7.96719 16.3687 8.13128C16.5328 8.29538 16.625 8.51794 16.625 8.75C16.625 8.98206 16.5328 9.20462 16.3687 9.36872C16.2046 9.53281 15.9821 9.625 15.75 9.625H14C13.7679 9.625 13.5454 9.53281 13.3813 9.36872C13.2172 9.20462 13.125 8.98206 13.125 8.75ZM7.875 13.125C7.875 12.8929 7.96719 12.6704 8.13128 12.5063C8.29538 12.3422 8.51794 12.25 8.75 12.25H10.5C10.7321 12.25 10.9546 12.3422 11.1187 12.5063C11.2828 12.6704 11.375 12.8929 11.375 13.125C11.375 13.3571 11.2828 13.5796 11.1187 13.7437C10.9546 13.9078 10.7321 14 10.5 14H8.75C8.51794 14 8.29538 13.9078 8.13128 13.7437C7.96719 13.5796 7.875 13.3571 7.875 13.125ZM13.125 13.125C13.125 12.8929 13.2172 12.6704 13.3813 12.5063C13.5454 12.3422 13.7679 12.25 14 12.25H15.75C15.9821 12.25 16.2046 12.3422 16.3687 12.5063C16.5328 12.6704 16.625 12.8929 16.625 13.125C16.625 13.3571 16.5328 13.5796 16.3687 13.7437C16.2046 13.9078 15.9821 14 15.75 14H14C13.7679 14 13.5454 13.9078 13.3813 13.7437C13.2172 13.5796 13.125 13.3571 13.125 13.125Z" fill="black"/>
</svg>
